<svg width="24" height="24" viewBox="0 0 24 24" fill="none" xmlns="http://www.w3.org/2000/svg">
<path d="M22.6667 2.66667H18.6667V1.33333C18.6667 0.979711 18.5262 0.640573 18.2761 0.390524C18.0261 0.140476 17.687 0 17.3333 0C16.9797 0 16.6406 0.140476 16.3905 0.390524C16.1405 0.640573 16 0.979711 16 1.33333V2.66667H8V1.33333C8 0.979711 7.85952 0.640573 7.60948 0.390524C7.35943 0.140476 7.02029 0 6.66667 0C6.31305 0 5.97391 0.140476 5.72386 0.390524C5.47381 0.640573 5.33333 0.979711 5.33333 1.33333V2.66667H1.33333C0.979711 2.66667 0.640573 2.80714 0.390524 3.05719C0.140476 3.30724 0 3.64638 0 4V22.6667C0 23.0203 0.140476 23.3594 0.390524 23.6095C0.640573 23.8595 0.979711 24 1.33333 24H22.6667C23.0203 24 23.3594 23.8595 23.6095 23.6095C23.8595 23.3594 24 23.0203 24 22.6667V4C24 3.64638 23.8595 3.30724 23.6095 3.05719C23.3594 2.80714 23.0203 2.66667 22.6667 2.66667ZM2.66667 21.3333V12H14.6667C15.0203 12 15.3594 11.8595 15.6095 11.6095C15.8595 11.3594 16 11.0203 16 10.6667C16 10.313 15.8595 9.97391 15.6095 9.72386C15.3594 9.47381 15.0203 9.33333 14.6667 9.33333H2.66667V5.33333H5.33333V6.66667C5.33333 7.02029 5.47381 7.35943 5.72386 7.60948C5.97391 7.85952 6.31305 8 6.66667 8C7.02029 8 7.35943 7.85952 7.60948 7.60948C7.85952 7.35943 8 7.02029 8 6.66667V5.33333H16V6.66667C16 7.02029 16.1405 7.35943 16.3905 7.60948C16.6406 7.85952 16.9797 8 17.3333 8C17.687 8 18.0261 7.85952 18.2761 7.60948C18.5262 7.35943 18.6667 7.02029 18.6667 6.66667V5.33333H21.3333V9.33333H18.6667C18.313 9.33333 17.9739 9.47381 17.7239 9.72386C17.4738 9.97391 17.3333 10.313 17.3333 10.6667C17.3333 11.0203 17.4738 11.3594 17.7239 11.6095C17.9739 11.8595 18.313 12 18.6667 12H21.3333V21.3333H2.66667Z" fill="#FF844B"/>
</svg>
